<svg width="100" height="28" viewBox="0 0 100 28" fill="none" xmlns="http://www.w3.org/2000/svg">
<rect width="100" height="28" fill="#2C2C2C"/>
<g id="&#236;&#151;&#144;&#236;&#133;&#139;">
<path d="M-511 -178C-511 -179.105 -510.105 -180 -509 -180H455C456.105 -180 457 -179.105 457 -178V964C457 965.104 456.105 966 455 966H-509C-510.105 966 -511 965.105 -511 964V-178Z" fill="#E2E2E2"/>
<path d="M-509 -180V-179H455V-180V-181H-509V-180ZM457 -178H456V964H457H458V-178H457ZM455 966V965H-509V966V967H455V966ZM-511 964H-510V-178H-511H-512V964H-511ZM-509 966V965C-509.552 965 -510 964.552 -510 964H-511H-512C-512 965.657 -510.657 967 -509 967V966ZM457 964H456C456 964.552 455.552 965 455 965V966V967C456.657 967 458 965.657 458 964H457ZM455 -180V-179C455.552 -179 456 -178.552 456 -178H457H458C458 -179.657 456.657 -181 455 -181V-180ZM-509 -180V-181C-510.657 -181 -512 -179.657 -512 -178H-511H-510C-510 -178.552 -509.552 -179 -509 -179V-180Z" fill="white" fill-opacity="0.1"/>
<g id="logo">
<g id="Group 2085673475">
<path id="Union" d="M81.0817 3.83251C82.3592 2.77772 84.2504 2.95848 85.3054 4.23583L89.3972 9.18993L94.3522 5.09814C95.6297 4.04303 97.5208 4.22301 98.5759 5.50048C99.6309 6.77787 99.4508 8.66899 98.1735 9.72411L91.9636 14.852L91.1677 23.2046C91.0104 24.8539 89.5455 26.0639 87.8962 25.9067C86.2469 25.7495 85.0369 24.2846 85.194 22.6352L85.9724 14.4653L80.6784 8.05615C79.6236 6.77868 79.8044 4.88754 81.0817 3.83251Z" fill="#4E8CFF"/>
<path id="Union_2" d="M3.98357 3.43562C5.63118 3.26267 7.10754 4.45796 7.28072 6.1056L8.70849 19.69L16.4287 18.8785C18.0612 18.7072 19.5232 19.8917 19.6948 21.5243C19.8663 23.1567 18.6825 24.6195 17.0501 24.7913L6.36775 25.914C6.26186 25.9252 6.15672 25.9254 6.05333 25.9216C4.52636 25.9346 3.21104 24.7855 3.0481 23.2356L1.31359 6.73277C1.1404 5.08499 2.33579 3.60881 3.98357 3.43562Z" fill="#4E8CFF"/>
<path id="Union_3" d="M67.1434 2.71864C68.7848 2.94415 69.9327 4.45762 69.7072 6.09905L68.7827 12.8278L74.7699 8.28703C76.0901 7.28582 77.9724 7.54444 78.9736 8.86457C79.9745 10.1846 79.716 12.0661 78.3962 13.0673L71.9788 17.9334L75.4234 20.6068C76.7321 21.6229 76.9689 23.508 75.953 24.8167C74.9369 26.1253 73.0528 26.3623 71.744 25.3464L67.514 22.0624L67.3444 23.2969C67.1188 24.9383 65.6054 26.0861 63.9639 25.8606C62.3225 25.6351 61.1747 24.1216 61.4002 22.4802L63.763 5.28238C63.9885 3.64095 65.502 2.49312 67.1434 2.71864Z" fill="#4E8CFF"/>
<path id="Union_4" d="M48.9918 3.9223C55.067 3.9223 59.9918 8.84717 59.9918 14.9223C59.9918 20.9974 55.067 25.9223 48.9918 25.9223C45.2698 25.9223 41.9823 24.0718 39.9918 21.2426C38.0014 24.0718 34.7139 25.9223 30.9918 25.9223C24.9167 25.9223 19.9918 20.9974 19.9918 14.9223C19.9918 8.84717 24.9167 3.9223 30.9918 3.9223C34.7136 3.9223 38.0013 5.77223 39.9918 8.60101C41.9823 5.77223 45.2701 3.9223 48.9918 3.9223ZM30.9918 9.53265C28.015 9.53265 25.6022 11.9455 25.6022 14.9223C25.6022 17.8991 28.015 20.312 30.9918 20.312C33.9686 20.312 36.3815 17.8991 36.3815 14.9223C36.3815 11.9455 33.9686 9.53265 30.9918 9.53265ZM48.9918 9.53265C46.015 9.53265 43.6022 11.9455 43.6022 14.9223C43.6022 17.8991 46.015 20.312 48.9918 20.312C51.9686 20.312 54.3815 17.8991 54.3815 14.9223C54.3815 11.9455 51.9686 9.53265 48.9918 9.53265Z" fill="#4E8CFF"/>
</g>
</g>
</g>
</svg>
